<svg xmlns="http://www.w3.org/2000/svg" viewBox="0 0 512 512" width="512" height="512">
  <defs>
    <linearGradient id="bg" x1="0" y1="0" x2="1" y2="1">
      <stop offset="0" stop-color="#1a73e8"/>
      <stop offset="1" stop-color="#0b3aa6"/>
    </linearGradient>
    <linearGradient id="tag" x1="0" y1="0" x2="1" y2="1">
      <stop offset="0" stop-color="#ff8a3d"/>
      <stop offset="1" stop-color="#ff5100"/>
    </linearGradient>
  </defs>

  <!-- background -->
  <rect width="512" height="512" fill="url(#bg)"/>

  <!-- sale tag -->
  <g transform="rotate(-18 256 300)">
    <rect x="150" y="250" width="240" height="120" rx="24" fill="url(#tag)"/>
    <circle cx="182" cy="282" r="16" fill="#fff"/>
    <text x="290" y="330" font-family="Hiragino Sans, Arial, sans-serif" font-size="66" font-weight="800" fill="#fff" text-anchor="middle">SALE</text>
  </g>

  <!-- airplane -->
  <g transform="translate(256 205) rotate(-40)" fill="#ffffff">
    <path d="M0,-118 C14,-118 22,-96 22,-64 L22,-30 108,26 108,52 22,30 22,74 44,92 44,110 0,98 -44,110 -44,92 -22,74 -22,30 -108,52 -108,26 -22,-30 -22,-64 C-22,-96 -14,-118 0,-118 Z"/>
  </g>
</svg>
